<svg width="33" height="29" viewBox="0 0 33 29" fill="none" xmlns="http://www.w3.org/2000/svg">
<path d="M31.1524 12.6558H30.3673V7.93856C30.3673 6.00972 28.7972 4.44635 26.8751 4.44635H26.1509L26.1577 2.69347C26.1577 1.39404 25.1019 0.338257 23.8025 0.338257H2.8628C1.29943 0.338257 0.0203035 1.59708 0 3.16045C0 3.17399 0 3.18752 0 3.20106V26.3065C0 27.6059 1.05578 28.6617 2.35521 28.6617H26.8819C28.8107 28.6617 30.3741 27.0916 30.3741 25.1695V20.4456H31.1591C32.1743 20.4456 33 19.6199 33 18.6047V14.4966C32.9932 13.4814 32.1676 12.6558 31.1524 12.6558ZM2.8628 1.96254H23.8025C24.2018 1.96254 24.5334 2.2874 24.5334 2.6867L24.5267 4.44635H2.8628C2.17924 4.44635 1.62428 3.89138 1.62428 3.20783C1.62428 2.52427 2.17924 1.96254 2.8628 1.96254ZM28.743 25.1628C28.743 26.1915 27.9038 27.0307 26.8751 27.0307H2.34844C1.94914 27.0307 1.61751 26.7058 1.61751 26.2998V5.78638C1.99651 5.96911 2.41612 6.07063 2.8628 6.07063H26.8751C27.9038 6.07063 28.743 6.90984 28.743 7.93856V12.6558H23.2002C22.185 12.6558 21.3593 13.4814 21.3593 14.4966V18.6047C21.3593 19.6199 22.185 20.4456 23.2002 20.4456H28.743V25.1628ZM31.3689 18.6047C31.3689 18.7265 31.2742 18.8213 31.1524 18.8213H23.2069C23.0851 18.8213 22.9904 18.7265 22.9904 18.6047V14.4966C22.9904 14.3816 23.0851 14.28 23.2069 14.28H31.1524C31.2674 14.28 31.3689 14.3748 31.3689 14.4966V18.6047Z" fill="white"/>
</svg>
